<?xml version="1.0" encoding="UTF-8"?>
<!-- Created with Inkscape (http://www.inkscape.org/) -->
<svg width="59.673mm" height="31.442mm" version="1.1" viewBox="0 0 59.673 31.442" xmlns="http://www.w3.org/2000/svg" xmlns:xlink="http://www.w3.org/1999/xlink">
 <defs>
  <linearGradient id="linearGradient44" x1="45.898" x2="72.937" y1="77.467" y2="77.467" gradientUnits="userSpaceOnUse">
   <stop stop-opacity=".84455" offset="0"/>
   <stop stop-opacity="0" offset="1"/>
  </linearGradient>
  <linearGradient id="linearGradient46" x1="70.173" x2="80.686" y1="77.467" y2="77.467" gradientUnits="userSpaceOnUse">
   <stop stop-opacity=".24088" offset="0"/>
   <stop stop-opacity=".7354" offset="1"/>
  </linearGradient>
 </defs>
 <g transform="translate(-45.898 -61.748)">
  <g transform="translate(.2 .20034)" stroke="#000">
   <path d="m46.398 62.749v2.142h13.02v27.294h2.2639v-27.294h10.755v-2.142h-13.019z" fill="url(#linearGradient44)" fill-opacity=".84455" style="paint-order:stroke fill markers"/>
   <path d="m75.424 62.25a4.7503 15.218 0 0 0-4.7506 15.218 4.7503 15.218 0 0 0 4.7506 15.218 4.7503 15.218 0 0 0 4.6814-12.786c-0.15655 0.0039-0.25166-0.14043-0.17828-0.31109h-0.18707c-0.08981 0.0065-0.17691-0.01455-0.26407-0.03256-0.02163 2.72e-4 -0.0594-0.0038-0.08837-0.0062-0.0055 0.01181-0.01297 0.01933-0.02377 0.02325-0.0034 0.0076-0.0058 0.01239-0.0093 0.02015-0.01486 0.03271-0.07167-0.0057-0.10749-0.0083-0.0416-3e-3 -0.08294-0.0058-0.12454-0.0088-0.36503-0.02554-0.72998-0.05373-1.095-0.07906-0.15337-0.0076-0.30695-0.02419-0.45734-0.05581-0.02094-0.0044-0.0452-0.0019-0.06253-0.01447-0.08264-0.05986-0.15453-0.1331-0.23203-0.19947 0.0074-0.0424 0.0111-0.08574 0.01499-0.12919-0.03378 6e-3 -0.06748 0.01228-0.10129 0.01809-0.1264 0.01437-0.44279 0.11271-0.53278-0.0217-0.02415-0.03608-0.03731-0.07676-0.04651-0.11886-0.03634-0.0031-0.06721-0.0038-0.06873 0.0016-0.11305-0.0045-0.37609 0.0011-0.47077-0.03824-0.06905-0.02868-0.13287-0.06782-0.19947-0.1018-0.0324-0.10616-0.11597-0.20946-0.09715-0.31884 0.04059-0.23589 0.2635-0.28287 0.4439-0.31264 0.02166-0.0032 0.04344-5e-3 0.06511-0.0072 0.09483-0.06173 0.18956-0.10326 0.29301-0.13229 0.04425-0.17303 0.10557-0.28729 0.23719-0.32814-3.99e-4 -0.0087 0.01234-0.0086 0.03514-0.0088 8e-3 -0.0016 0.01628-3e-3 0.02481-0.0041 0.0086-0.0037 0.02949-4e-3 0.04651-0.0036 0.01017-3.55e-4 0.02022-7.15e-4 0.03101-5.17e-4 4.76e-4 0.0043 0.0011 0.0086 0.0015 0.01292 0.01208 0.0021 0.02724 0.0048 0.03514 0.0057 0.07914 0.0087 0.15858 0.016 0.23771 0.02481 0.35211 0.04061 0.70355 0.09107 1.048 0.17622 0.07228 0.01849 0.14531 0.03704 0.21807 0.05633 0.01966-0.0053 0.03975-0.0087 0.05943-0.01395 0.04802-0.01018 0.09678-0.01748 0.14521-0.02584-0.0366-0.17362-0.0065-0.22478 0.19327-0.29352 0.16348-0.03777 0.33049-0.04492 0.49713-0.06098 0.17166-0.01532 0.34291-0.0187 0.51521-0.0155 0.05232 6.6e-5 0.09641-0.0012 0.13332-0.0016 0.04751-4.75e-4 0.08229 9.37e-4 0.10904 0.0062 0.0026-1.88e-4 0.0052-3.15e-4 0.0078-5.17e-4 2e-5 7.92e-4 -2e-5 0.0013 0 0.0021 0.0079 0.0019 0.01392 0.0052 0.02015 0.0083a4.7503 15.218 0 0 0 0.0026-0.13384 4.7503 15.218 0 0 0-4.7501-15.218zm1.4242 15.479c-0.01225 0.0024-0.02394 0.0053-0.03514 0.0088 4.45e-4 0.0097 0.01313 0.03495 0.02946 0.07906 0.0088-0.02947 0.01721-0.05915 0.02687-0.08837-0.0095 3.47e-4 -0.01433 4.7e-4 -0.02119 5.17e-4zm0.10439 0.0093c0.01403 0.12298 0.03127 0.24554 0.04599 0.36845 0.0019-8.5e-5 0.0038-4.29e-4 0.0057-5.17e-4 0.02202-0.10819 0.04414-0.21632 0.06615-0.32453-0.03928-0.01445-0.0788-0.02828-0.11782-0.04341zm-0.38861 0.44752c-0.0016 9.78e-4 -0.0034 0.0017-0.0047 0.0031 0.0016 3.3e-5 0.0031 1.7e-5 0.0047 0-3.7e-5 -0.0012 3.8e-5 -0.0019 0-0.0031zm0.0124 0.67334c0.0054 0.0084 0.01339 0.01789 0.02222 0.02791-7.45e-4 -0.0091-0.0015-0.01819-0.0021-0.02739-0.0062-1.03e-4 -0.01197 1.07e-4 -0.02015-5.17e-4z" fill="url(#linearGradient46)" fill-opacity=".14263" style="paint-order:stroke fill markers"/>
   <g fill-opacity=".14263">
    <path d="m74.89 77.467v2.6417h10.567v-2.6417zm5.1439 0.11782c0.04751-4.75e-4 0.08229 9.38e-4 0.10904 0.0062 0.0026-1.88e-4 0.0052-3.15e-4 0.0078-5.17e-4 2e-5 7.92e-4 -2e-5 0.0013 0 0.0021 0.04257 0.01053 0.06011 0.03606 0.06511 0.09353 0.01072 0.0024 0.02133 0.0048 0.03204 0.0072 0.09877 0.02118 0.19735 0.04375 0.29559 0.06718 0.0076-0.0012 0.0151-3e-3 0.02274-0.0041 0.1203-0.01639 0.24103-0.02489 0.36225-0.03049 0.03176-0.0015 0.05817-0.0034 0.0801-0.0036 0.10037-0.0011 0.10973 0.02948 0.12867 0.20102 0.04552-0.0015 0.10021-0.0018 0.14108-0.0026 0.04514-1e-3 0.09025-1e-3 0.13539-1e-3 0.14863-0.0023 0.29584-0.0024 0.44338 0.01705 0.08556 0.01275 0.17172 0.0228 0.25786 0.03152 0.06315-0.0433 0.14893-0.072 0.25632-0.07493 0.05139-0.0014 0.10757 0.0033 0.16846 0.01447 0.12417 0.02283 0.05952 0.0096 0.19275 0.03927 0.07659 0.02258 0.17454 0.05758 0.26303 0.108 0.02299-0.0025 0.04543-0.0036 0.06666-0.0031 0.16957 0.0037 0.28151 0.09695 0.30799 0.21859 0.13728 0.02098 0.0099 0.07964 0.0052 0.65526-8e-6 1e-3 -0.01527 0.0028-0.02067 0.0041-1.62e-4 0.02049-0.0018 0.03661-0.0026 0.05529 0.2761 0.09452 0.5499 0.19577 0.81804 0.31109 0.28383 0.13102 0.30124 0.0877 0.05839 0.68213-0.02449 0.05994-0.43563-0.06983-0.47336-0.06563-0.49772-0.09111-0.99747-0.17074-1.5012-0.22066-0.04383 0.0682-0.11256 0.12783-0.20464 0.17105-0.05621 0.02638-0.11806 0.02679-0.17828 0.03359-0.03954 0.0012-0.07417-3e-3 -0.10594-0.01137l-5.17e-4 5.17e-4c-0.2012 6.7e-4 -0.39821-0.05693-0.59686-0.08217-0.22396-0.04241-0.44711-0.08977-0.66818-0.14521-0.04042 0.03233-0.08139 0.06402-0.11937 0.0987-0.0046 0.0044-0.0094 0.0085-0.01395 0.01292-0.27919 0.26794-0.55056 0.07261-0.4408-0.18242h-0.18604c-0.08981 0.0065-0.17691-0.01455-0.26407-0.03256-0.02473 3.11e-4 -0.05492-0.0018-0.0894-0.0046-0.0054 0.01075-0.01251 0.01799-0.02274 0.0217-0.0034 0.0076-0.0058 0.01239-0.0093 0.02015-0.01486 0.03271-0.07167-0.0057-0.10749-0.0083-0.0416-3e-3 -0.08294-0.0058-0.12454-0.0088-0.36503-0.02554-0.72998-0.05373-1.095-0.07906-0.15337-0.0076-0.30695-0.02419-0.45734-0.05581-0.02094-0.0044-0.0452-0.0019-0.06253-0.01447-0.08264-0.05986-0.15453-0.1331-0.23203-0.19947 0.0074-0.0424 0.0111-0.08574 0.01499-0.12919-0.03378 6e-3 -0.06748 0.01228-0.10129 0.01809-0.1264 0.01437-0.44279 0.1127-0.53278-0.0217-0.02415-0.03608-0.03731-0.07676-0.04651-0.11886-0.03634-0.0031-0.06721-0.0038-0.06873 0.0016-0.11305-0.0045-0.37609 0.0011-0.47077-0.03824-0.06905-0.02868-0.13287-0.06782-0.19947-0.1018-0.0324-0.10616-0.11597-0.20946-0.09715-0.31884 0.04059-0.23589 0.2635-0.28287 0.4439-0.31264 0.02166-0.0032 0.04344-5e-3 0.06511-0.0072 0.09483-0.06173 0.18956-0.10326 0.29301-0.13229 0.04425-0.17303 0.10557-0.28729 0.23719-0.32814-3.99e-4 -0.0087 0.01234-0.0086 0.03514-0.0088 8e-3 -0.0016 0.01628-3e-3 0.02481-0.0041 0.0086-0.0037 0.02949-4e-3 0.04651-0.0036 0.01017-3.55e-4 0.02022-7.15e-4 0.03101-5.17e-4 4.76e-4 0.0043 0.0011 0.0086 0.0015 0.01292 0.01208 0.0021 0.02724 0.0048 0.03514 0.0057 0.07914 0.0087 0.15858 0.01599 0.23771 0.02481 0.35211 0.04061 0.70355 0.09107 1.048 0.17622 0.07332 0.01875 0.14736 0.03777 0.22118 0.05736 0.01876-0.0051 0.03755-0.01 0.05633-0.01499 0.04802-0.01018 0.09678-0.01748 0.14521-0.02584-0.0366-0.17362-0.0065-0.22478 0.19327-0.29352 0.16348-0.03777 0.33049-0.04492 0.49713-0.06098 0.17166-0.01532 0.34291-0.0187 0.51521-0.0155 0.05232 6.6e-5 0.09641-0.0012 0.13332-0.0016zm-3.1864 0.14366c-0.01225 0.0024-0.02394 0.0053-0.03514 0.0088 4.45e-4 0.0097 0.01313 0.03496 0.02946 0.07906 0.0088-0.02947 0.01721-0.05915 0.02687-0.08837-0.0095 3.47e-4 -0.01433 4.7e-4 -0.02119 5.17e-4zm0.10439 0.0093c0.01403 0.12298 0.03127 0.24554 0.04599 0.36845 0.0019-8.5e-5 0.0038-4.29e-4 0.0057-5.17e-4 0.02202-0.10819 0.04414-0.21632 0.06615-0.32453-0.03928-0.01445-0.0788-0.02828-0.11782-0.04341zm-0.38861 0.44752c-0.0016 9.78e-4 -0.0034 0.0017-0.0047 0.0031 0.0016 3.3e-5 0.0031 1.7e-5 0.0047 0-3.7e-5 -0.0012 3.8e-5 -0.0019 0-0.0031zm0.0124 0.67334c5e-3 0.0077 0.01187 0.01632 0.01964 0.02532-6.5e-4 -0.0083-0.0016-0.01644-0.0021-0.02481-0.0057-1.55e-4 -0.01044 2.7e-5 -0.01757-5.17e-4z" style="paint-order:stroke fill markers"/>
    <path d="m85.454 62.336 0.04858 8.2181a3.7664 6.9008 0 0 1 3.8065 6.75 3.7664 6.9008 0 0 1-3.6442 7.0476l-0.12144-6.8973 0.25476 15.111a7.8948 15.119 0 0 0 7.6383-15.441 7.8948 15.119 0 0 0-7.9825-14.789zm0.0894 15.118-0.04082-6.9004a3.7664 6.9008 0 0 0-0.0015 0z" stroke-width="1.174" style="paint-order:stroke fill markers"/>
    <path d="m99.215 62.213a5.855 15.258 0 0 0-5.8188 15.153 5.855 15.258 0 0 0 5.7376 15.36l0.30592-0.0052a5.855 15.258 0 0 0 5.6653-15.543 5.855 15.258 0 0 0-5.8901-14.964zm0.0186 9.6656 5.17e-4 1e-3a2.3516 5.5904 0 0 1 2.3513 5.5904 2.3516 5.5904 0 0 1-1e-3 0.04909c-3e-3 -0.0012-6e-3 -0.0025-0.0103-0.0031v-5.17e-4c-1e-3 6.8e-5 -2e-3 4.49e-4 -4e-3 5.17e-4 -0.0132-0.0022-0.0307-0.0028-0.0543-0.0026-0.0183 2.54e-4 -0.0403 5.48e-4 -0.0661 5.17e-4 -0.0853-0.0013-0.16979 8.4e-5 -0.25477 0.0057-0.0825 0.0059-0.16505 0.0083-0.24598 0.02222-0.0989 0.02526-0.11372 0.04422-0.0956 0.108-0.024 0.0031-0.0486 0.0056-0.0724 0.0093-0.01 0.0019-0.0198 0.0033-0.0295 0.0052-0.036-0.0071-0.0717-0.01387-0.10749-0.02067-0.17051-0.03126-0.34452-0.04966-0.51883-0.0646-0.0392-0.0035-0.0786-0.0062-0.11782-0.0093-4e-3 -6e-4 -0.01157-2e-3 -0.01757-0.0026-1.98e-4 -0.0019-2.88e-4 -0.0035-5.17e-4 -0.0047-0.0053-7.4e-5 -0.0105-1.24e-4 -0.0155 0-0.0084 0-0.01844-1.66e-4 -0.02274 1e-3 -0.0028 0-0.0056 6.78e-4 -0.0083 1e-3 0.0019-3e-5 0.0034 7.5e-5 0.0062 0-0.0048 0.01073-9e-3 0.02171-0.01344 0.03256-0.0081-0.01624-0.01425-0.02524-0.01447-0.02894-0.06516 0.01501-0.09539 0.05685-0.1173 0.12041-0.05121 0.01066-0.09827 0.02589-0.14521 0.04858-0.01073 6e-4 -0.02131 0.0014-0.03204 0.0026-0.08931 0.01094-0.19952 0.02806-0.21962 0.11472-0.0093 0.04019 0.03202 0.07832 0.04806 0.11731 0.03297 0.01245 0.06452 0.02667 0.0987 0.03721 0.04687 0.01438 0.17709 0.01275 0.23306 0.01395 7.5e-4 -0.0018 0.01612-0.0017 0.03411-5.16e-4 0.0045 0.01537 0.01078 0.03015 0.02274 0.04341 0.04455 0.0494 0.2015 0.01387 0.26407 0.0083 0.0167-0.0024 0.0334-0.0042 0.0501-0.0067-2e-3 0.01599-4e-3 0.03198-8e-3 0.04754 0.0384 0.02438 0.0738 0.05086 0.11472 0.07286 9e-3 5e-3 0.0206 0.0045 0.031 0.0057 0.0745 0.01162 0.15093 0.01757 0.22686 0.02067 0.18071 0.0094 0.36138 0.01954 0.54209 0.02894 0.0206 6e-4 0.0409 0.0019 0.0615 0.0031 0.0177 6e-4 0.0458 0.01512 0.0532 0.0031 2e-3 -0.0031 3e-3 -0.0041 5e-3 -0.0072 5e-3 -0.0015 9e-3 -0.0045 0.0114-0.0088 0.0143 0.0013 0.0332 0.0027 0.0439 0.0026 0.0431 0.0064 0.0863 0.01439 0.13074 0.01189h0.0925c-0.0363 0.06271 0.0109 0.1154 0.0884 0.1142a2.3516 5.5904 0 0 1-2.3177 4.6974 2.3516 5.5904 0 0 1-2.3513-5.5904 2.3516 5.5904 0 0 1 2.3513-5.5904zm0.75706 5.6896c0.01932 0.0055 0.03894 0.0099 0.05839 0.0155-0.0109 0.03974-0.0222 0.07964-0.0331 0.11937-9e-4 3.1e-5 -2e-3 -2.5e-5 -3e-3 0-7e-3 -0.04514-0.01584-0.08969-0.02274-0.13488zm-0.19224 0.16433c1.9e-5 5.81e-4 -1.8e-5 6.68e-4 0 1e-3 -8e-4 0-0.0018 7e-6 -0.0026 0 6e-4 -5.8e-4 0.0018-6.74e-4 0.0026-1e-3zm0.0057 0.24701c0.0041 2.3e-4 0.0072 4.74e-4 0.01033 5.17e-4 2.56e-4 0.0033 6.82e-4 0.0067 1e-3 0.0098-0.0044-0.0036-0.0087-0.0072-0.01137-0.01034z" stroke-width=".9288" style="paint-order:stroke fill markers"/>
   </g>
  </g>
 </g>
</svg>
